solid ascii
  facet normal 0.000000e+00 -0.000000e+00 1.000000e+00
    outer loop
      vertex   -1.550000e+01 3.200000e+01 2.070000e+01
      vertex   -1.550000e+01 3.500000e+01 2.070000e+01
      vertex   -1.850000e+01 3.200000e+01 2.070000e+01
    endloop
  endfacet
  facet normal 0.000000e+00 0.000000e+00 7.071068e-01
    outer loop
      vertex   -1.850000e+01 3.200000e+01 2.070000e+01
      vertex   -1.550000e+01 3.500000e+01 2.070000e+01
      vertex   -1.850000e+01 3.500000e+01 2.070000e+01
    endloop
  endfacet
  facet normal -1.000000e+00 -0.000000e+00 -0.000000e+00
    outer loop
      vertex   -1.850000e+01 3.500000e+01 2.070000e+01
      vertex   -1.850000e+01 3.500000e+01 7.700000e+00
      vertex   -1.850000e+01 3.200000e+01 2.070000e+01
    endloop
  endfacet
  facet normal -2.248595e-01 0.000000e+00 0.000000e+00
    outer loop
      vertex   -1.850000e+01 3.200000e+01 2.070000e+01
      vertex   -1.850000e+01 3.500000e+01 7.700000e+00
      vertex   -1.850000e+01 3.200000e+01 7.700000e+00
    endloop
  endfacet
  facet normal 0.000000e+00 1.000000e+00 0.000000e+00
    outer loop
      vertex   -1.550000e+01 3.500000e+01 2.070000e+01
      vertex   -1.550000e+01 3.500000e+01 7.700000e+00
      vertex   -1.850000e+01 3.500000e+01 2.070000e+01
    endloop
  endfacet
  facet normal 0.000000e+00 2.248595e-01 0.000000e+00
    outer loop
      vertex   -1.850000e+01 3.500000e+01 2.070000e+01
      vertex   -1.550000e+01 3.500000e+01 7.700000e+00
      vertex   -1.850000e+01 3.500000e+01 7.700000e+00
    endloop
  endfacet
  facet normal 0.000000e+00 0.000000e+00 -1.000000e+00
    outer loop
      vertex   -1.850000e+01 3.200000e+01 7.700000e+00
      vertex   -1.850000e+01 3.500000e+01 7.700000e+00
      vertex   -1.550000e+01 3.200000e+01 7.700000e+00
    endloop
  endfacet
  facet normal 0.000000e+00 0.000000e+00 -7.071068e-01
    outer loop
      vertex   -1.550000e+01 3.200000e+01 7.700000e+00
      vertex   -1.850000e+01 3.500000e+01 7.700000e+00
      vertex   -1.550000e+01 3.500000e+01 7.700000e+00
    endloop
  endfacet
  facet normal 0.000000e+00 -1.000000e+00 0.000000e+00
    outer loop
      vertex   -1.850000e+01 3.200000e+01 2.070000e+01
      vertex   -1.850000e+01 3.200000e+01 7.700000e+00
      vertex   -1.550000e+01 3.200000e+01 2.070000e+01
    endloop
  endfacet
  facet normal 0.000000e+00 -2.248595e-01 -0.000000e+00
    outer loop
      vertex   -1.550000e+01 3.200000e+01 2.070000e+01
      vertex   -1.850000e+01 3.200000e+01 7.700000e+00
      vertex   -1.550000e+01 3.200000e+01 7.700000e+00
    endloop
  endfacet
  facet normal 1.000000e+00 0.000000e+00 0.000000e+00
    outer loop
      vertex   -2.250000e+01 2.850000e+01 2.800000e+01
      vertex   -2.250000e+01 3.950000e+01 2.800000e+01
      vertex   -2.250000e+01 2.850000e+01 4.800000e+01
    endloop
  endfacet
  facet normal 8.762159e-01 -0.000000e+00 0.000000e+00
    outer loop
      vertex   -2.250000e+01 2.850000e+01 4.800000e+01
      vertex   -2.250000e+01 3.950000e+01 2.800000e+01
      vertex   -2.250000e+01 5.950000e+01 4.800000e+01
    endloop
  endfacet
  facet normal 7.071068e-01 0.000000e+00 0.000000e+00
    outer loop
      vertex   -2.250000e+01 5.950000e+01 4.800000e+01
      vertex   -2.250000e+01 3.950000e+01 2.800000e+01
      vertex   -2.250000e+01 5.950000e+01 2.800000e+01
    endloop
  endfacet
  facet normal 0.000000e+00 -1.000000e+00 0.000000e+00
    outer loop
      vertex   -2.250000e+01 5.950000e+01 2.800000e+01
      vertex   -2.050000e+01 5.950000e+01 2.800000e+01
      vertex   -2.250000e+01 5.950000e+01 4.800000e+01
    endloop
  endfacet
  facet normal 0.000000e+00 -9.950372e-01 0.000000e+00
    outer loop
      vertex   -2.250000e+01 5.950000e+01 4.800000e+01
      vertex   -2.050000e+01 5.950000e+01 2.800000e+01
      vertex   -1.250000e+01 5.950000e+01 4.800000e+01
    endloop
  endfacet
  facet normal 0.000000e+00 -2.481827e-01 0.000000e+00
    outer loop
      vertex   -1.250000e+01 5.950000e+01 4.800000e+01
      vertex   -2.050000e+01 5.950000e+01 2.800000e+01
      vertex   -1.550000e+01 5.950000e+01 2.500000e+01
    endloop
  endfacet
  facet normal 0.000000e+00 -1.293392e-01 -0.000000e+00
    outer loop
      vertex   -1.250000e+01 5.950000e+01 4.800000e+01
      vertex   -1.550000e+01 5.950000e+01 2.500000e+01
      vertex   -1.250000e+01 5.950000e+01 2.300000e+01
    endloop
  endfacet
  facet normal 0.000000e+00 -5.547002e-01 0.000000e+00
    outer loop
      vertex   -1.250000e+01 5.950000e+01 2.300000e+01
      vertex   -1.550000e+01 5.950000e+01 2.500000e+01
      vertex   -1.550000e+01 5.950000e+01 2.300000e+01
    endloop
  endfacet
  facet normal 0.000000e+00 -8.574929e-01 0.000000e+00
    outer loop
      vertex   -2.050000e+01 5.950000e+01 2.800000e+01
      vertex   -2.050000e+01 5.950000e+01 2.500000e+01
      vertex   -1.550000e+01 5.950000e+01 2.500000e+01
    endloop
  endfacet
  facet normal 0.000000e+00 3.162278e-01 0.000000e+00
    outer loop
      vertex   -2.550000e+01 3.950000e+01 2.700000e+01
      vertex   -2.250000e+01 3.950000e+01 2.800000e+01
      vertex   -1.450000e+01 3.950000e+01 2.700000e+01
    endloop
  endfacet
  facet normal 0.000000e+00 5.547002e-01 -0.000000e+00
    outer loop
      vertex   -1.450000e+01 3.950000e+01 2.700000e+01
      vertex   -2.250000e+01 3.950000e+01 2.800000e+01
      vertex   -1.250000e+01 3.950000e+01 2.800000e+01
    endloop
  endfacet
  facet normal -0.000000e+00 1.000000e+00 0.000000e+00
    outer loop
      vertex   -1.450000e+01 3.950000e+01 2.700000e+01
      vertex   -1.250000e+01 3.950000e+01 2.800000e+01
      vertex   -1.250000e+01 3.950000e+01 2.300000e+01
    endloop
  endfacet
  facet normal 0.000000e+00 9.486833e-01 0.000000e+00
    outer loop
      vertex   -2.550000e+01 3.950000e+01 2.700000e+01
      vertex   -2.550000e+01 3.950000e+01 2.800000e+01
      vertex   -2.250000e+01 3.950000e+01 2.800000e+01
    endloop
  endfacet
  facet normal 0.000000e+00 8.944272e-01 0.000000e+00
    outer loop
      vertex   -1.250000e+01 3.950000e+01 2.300000e+01
      vertex   -1.450000e+01 3.950000e+01 2.300000e+01
      vertex   -1.450000e+01 3.950000e+01 2.700000e+01
    endloop
  endfacet
  facet normal 0.000000e+00 0.000000e+00 1.000000e+00
    outer loop
      vertex   -2.250000e+01 2.850000e+01 2.800000e+01
      vertex   -1.250000e+01 2.850000e+01 2.800000e+01
      vertex   -2.250000e+01 3.950000e+01 2.800000e+01
    endloop
  endfacet
  facet normal -0.000000e+00 0.000000e+00 7.399400e-01
    outer loop
      vertex   -2.250000e+01 3.950000e+01 2.800000e+01
      vertex   -1.250000e+01 2.850000e+01 2.800000e+01
      vertex   -1.250000e+01 3.950000e+01 2.800000e+01
    endloop
  endfacet
  facet normal -1.000000e+00 0.000000e+00 0.000000e+00
    outer loop
      vertex   -2.550000e+01 3.950000e+01 2.700000e+01
      vertex   -2.550000e+01 3.050000e+01 2.700000e+01
      vertex   -2.550000e+01 3.950000e+01 2.800000e+01
    endloop
  endfacet
  facet normal -9.240758e-01 -0.000000e+00 0.000000e+00
    outer loop
      vertex   -2.550000e+01 3.950000e+01 2.800000e+01
      vertex   -2.550000e+01 3.050000e+01 2.700000e+01
      vertex   -2.550000e+01 2.850000e+01 4.800000e+01
    endloop
  endfacet
  facet normal -9.774222e-01 0.000000e+00 0.000000e+00
    outer loop
      vertex   -2.550000e+01 3.950000e+01 2.800000e+01
      vertex   -2.550000e+01 2.850000e+01 4.800000e+01
      vertex   -2.550000e+01 6.250000e+01 4.800000e+01
    endloop
  endfacet
  facet normal -1.000000e+00 0.000000e+00 0.000000e+00
    outer loop
      vertex   -2.550000e+01 3.050000e+01 2.300000e+01
      vertex   -2.550000e+01 2.850000e+01 2.300000e+01
      vertex   -2.550000e+01 3.050000e+01 2.700000e+01
    endloop
  endfacet
  facet normal -5.299990e-01 -0.000000e+00 0.000000e+00
    outer loop
      vertex   -2.550000e+01 3.050000e+01 2.700000e+01
      vertex   -2.550000e+01 2.850000e+01 2.300000e+01
      vertex   -2.550000e+01 2.850000e+01 4.800000e+01
    endloop
  endfacet
  facet normal -7.546055e-01 0.000000e+00 -0.000000e+00
    outer loop
      vertex   -2.550000e+01 6.250000e+01 4.800000e+01
      vertex   -2.550000e+01 6.250000e+01 2.800000e+01
      vertex   -2.550000e+01 3.950000e+01 2.800000e+01
    endloop
  endfacet
  facet normal 0.000000e+00 0.000000e+00 -1.000000e+00
    outer loop
      vertex   -2.550000e+01 3.950000e+01 2.700000e+01
      vertex   -1.450000e+01 3.950000e+01 2.700000e+01
      vertex   -2.550000e+01 3.050000e+01 2.700000e+01
    endloop
  endfacet
  facet normal 0.000000e+00 0.000000e+00 -6.332378e-01
    outer loop
      vertex   -2.550000e+01 3.050000e+01 2.700000e+01
      vertex   -1.450000e+01 3.950000e+01 2.700000e+01
      vertex   -1.450000e+01 3.050000e+01 2.700000e+01
    endloop
  endfacet
  facet normal 0.000000e+00 1.000000e+00 0.000000e+00
    outer loop
      vertex   -2.550000e+01 3.050000e+01 2.300000e+01
      vertex   -2.550000e+01 3.050000e+01 2.700000e+01
      vertex   -1.550000e+01 3.050000e+01 2.300000e+01
    endloop
  endfacet
  facet normal 0.000000e+00 9.908302e-01 -0.000000e+00
    outer loop
      vertex   -1.550000e+01 3.050000e+01 2.300000e+01
      vertex   -2.550000e+01 3.050000e+01 2.700000e+01
      vertex   -1.450000e+01 3.050000e+01 2.700000e+01
    endloop
  endfacet
  facet normal 0.000000e+00 9.701425e-01 0.000000e+00
    outer loop
      vertex   -1.550000e+01 3.050000e+01 2.300000e+01
      vertex   -1.450000e+01 3.050000e+01 2.700000e+01
      vertex   -1.450000e+01 3.050000e+01 2.300000e+01
    endloop
  endfacet
  facet normal -1.000000e+00 -0.000000e+00 -0.000000e+00
    outer loop
      vertex   -1.450000e+01 3.950000e+01 2.700000e+01
      vertex   -1.450000e+01 3.950000e+01 2.300000e+01
      vertex   -1.450000e+01 3.050000e+01 2.700000e+01
    endloop
  endfacet
  facet normal -9.138116e-01 0.000000e+00 0.000000e+00
    outer loop
      vertex   -1.450000e+01 3.050000e+01 2.700000e+01
      vertex   -1.450000e+01 3.950000e+01 2.300000e+01
      vertex   -1.450000e+01 3.050000e+01 2.300000e+01
    endloop
  endfacet
  facet normal 0.000000e+00 0.000000e+00 -1.000000e+00
    outer loop
      vertex   -1.550000e+01 2.850000e+01 2.300000e+01
      vertex   -2.550000e+01 2.850000e+01 2.300000e+01
      vertex   -1.550000e+01 3.050000e+01 2.300000e+01
    endloop
  endfacet
  facet normal -0.000000e+00 0.000000e+00 -1.961161e-01
    outer loop
      vertex   -1.550000e+01 3.050000e+01 2.300000e+01
      vertex   -2.550000e+01 2.850000e+01 2.300000e+01
      vertex   -2.550000e+01 3.050000e+01 2.300000e+01
    endloop
  endfacet
  facet normal 0.000000e+00 1.000000e+00 0.000000e+00
    outer loop
      vertex   -1.550000e+01 7.193011e+01 8.500000e+00
      vertex   -1.550000e+01 7.193011e+01 3.500000e+00
      vertex   -2.012967e+01 7.193011e+01 8.500000e+00
    endloop
  endfacet
  facet normal 0.000000e+00 6.794109e-01 0.000000e+00
    outer loop
      vertex   -2.012967e+01 7.193011e+01 8.500000e+00
      vertex   -1.550000e+01 7.193011e+01 3.500000e+00
      vertex   -2.012967e+01 7.193011e+01 3.500000e+00
    endloop
  endfacet
  facet normal 0.000000e+00 0.000000e+00 -1.000000e+00
    outer loop
      vertex   -1.550000e+01 5.193011e+01 3.500000e+00
      vertex   -2.012967e+01 5.193011e+01 3.500000e+00
      vertex   -1.550000e+01 7.193011e+01 3.500000e+00
    endloop
  endfacet
  facet normal -0.000000e+00 0.000000e+00 -9.742386e-01
    outer loop
      vertex   -1.550000e+01 7.193011e+01 3.500000e+00
      vertex   -2.012967e+01 5.193011e+01 3.500000e+00
      vertex   -2.012967e+01 7.193011e+01 3.500000e+00
    endloop
  endfacet
  facet normal 0.000000e+00 0.000000e+00 1.000000e+00
    outer loop
      vertex   -1.550000e+01 7.193011e+01 8.500000e+00
      vertex   -2.012967e+01 7.193011e+01 8.500000e+00
      vertex   -1.550000e+01 5.193011e+01 8.500000e+00
    endloop
  endfacet
  facet normal 0.000000e+00 0.000000e+00 9.742386e-01
    outer loop
      vertex   -1.550000e+01 5.193011e+01 8.500000e+00
      vertex   -2.012967e+01 7.193011e+01 8.500000e+00
      vertex   -2.012967e+01 5.193011e+01 8.500000e+00
    endloop
  endfacet
  facet normal 0.000000e+00 -1.000000e+00 0.000000e+00
    outer loop
      vertex   -1.550000e+01 5.193011e+01 3.500000e+00
      vertex   -1.550000e+01 5.193011e+01 8.500000e+00
      vertex   -2.012967e+01 5.193011e+01 3.500000e+00
    endloop
  endfacet
  facet normal 0.000000e+00 -6.794109e-01 0.000000e+00
    outer loop
      vertex   -2.012967e+01 5.193011e+01 3.500000e+00
      vertex   -1.550000e+01 5.193011e+01 8.500000e+00
      vertex   -2.012967e+01 5.193011e+01 8.500000e+00
    endloop
  endfacet
  facet normal -1.000000e+00 -0.000000e+00 -0.000000e+00
    outer loop
      vertex   -2.012967e+01 7.193011e+01 8.500000e+00
      vertex   -2.012967e+01 7.193011e+01 3.500000e+00
      vertex   -2.012967e+01 5.193011e+01 8.500000e+00
    endloop
  endfacet
  facet normal -9.701425e-01 0.000000e+00 0.000000e+00
    outer loop
      vertex   -2.012967e+01 5.193011e+01 8.500000e+00
      vertex   -2.012967e+01 7.193011e+01 3.500000e+00
      vertex   -2.012967e+01 5.193011e+01 3.500000e+00
    endloop
  endfacet
  facet normal 0.000000e+00 -0.000000e+00 1.000000e+00
    outer loop
      vertex   -1.550000e+01 8.500000e+01 3.400000e+01
      vertex   -1.550000e+01 8.800000e+01 3.400000e+01
      vertex   -1.850000e+01 8.500000e+01 3.400000e+01
    endloop
  endfacet
  facet normal 0.000000e+00 0.000000e+00 7.071068e-01
    outer loop
      vertex   -1.850000e+01 8.500000e+01 3.400000e+01
      vertex   -1.550000e+01 8.800000e+01 3.400000e+01
      vertex   -1.850000e+01 8.800000e+01 3.400000e+01
    endloop
  endfacet
  facet normal 0.000000e+00 0.000000e+00 -1.000000e+00
    outer loop
      vertex   -1.850000e+01 8.500000e+01 1.400000e+01
      vertex   -1.850000e+01 8.800000e+01 1.400000e+01
      vertex   -1.550000e+01 8.500000e+01 1.400000e+01
    endloop
  endfacet
  facet normal 0.000000e+00 0.000000e+00 -7.071068e-01
    outer loop
      vertex   -1.550000e+01 8.500000e+01 1.400000e+01
      vertex   -1.850000e+01 8.800000e+01 1.400000e+01
      vertex   -1.550000e+01 8.800000e+01 1.400000e+01
    endloop
  endfacet
  facet normal -1.000000e+00 -0.000000e+00 -0.000000e+00
    outer loop
      vertex   -1.850000e+01 8.800000e+01 3.400000e+01
      vertex   -1.850000e+01 8.800000e+01 1.400000e+01
      vertex   -1.850000e+01 8.500000e+01 3.400000e+01
    endloop
  endfacet
  facet normal -1.483404e-01 0.000000e+00 0.000000e+00
    outer loop
      vertex   -1.850000e+01 8.500000e+01 3.400000e+01
      vertex   -1.850000e+01 8.800000e+01 1.400000e+01
      vertex   -1.850000e+01 8.500000e+01 1.400000e+01
    endloop
  endfacet
  facet normal 0.000000e+00 1.000000e+00 0.000000e+00
    outer loop
      vertex   -1.550000e+01 8.800000e+01 3.400000e+01
      vertex   -1.550000e+01 8.800000e+01 1.400000e+01
      vertex   -1.850000e+01 8.800000e+01 3.400000e+01
    endloop
  endfacet
  facet normal 0.000000e+00 1.483404e-01 0.000000e+00
    outer loop
      vertex   -1.850000e+01 8.800000e+01 3.400000e+01
      vertex   -1.550000e+01 8.800000e+01 1.400000e+01
      vertex   -1.850000e+01 8.800000e+01 1.400000e+01
    endloop
  endfacet
  facet normal 0.000000e+00 -1.000000e+00 0.000000e+00
    outer loop
      vertex   -1.850000e+01 8.500000e+01 3.400000e+01
      vertex   -1.850000e+01 8.500000e+01 1.400000e+01
      vertex   -1.550000e+01 8.500000e+01 3.400000e+01
    endloop
  endfacet
  facet normal 0.000000e+00 -1.483404e-01 -0.000000e+00
    outer loop
      vertex   -1.550000e+01 8.500000e+01 3.400000e+01
      vertex   -1.850000e+01 8.500000e+01 1.400000e+01
      vertex   -1.550000e+01 8.500000e+01 1.400000e+01
    endloop
  endfacet
  facet normal -1.000000e+00 -0.000000e+00 -0.000000e+00
    outer loop
      vertex   -2.050000e+01 6.250000e+01 2.800000e+01
      vertex   -2.050000e+01 6.250000e+01 2.500000e+01
      vertex   -2.050000e+01 5.950000e+01 2.800000e+01
    endloop
  endfacet
  facet normal -7.071068e-01 0.000000e+00 0.000000e+00
    outer loop
      vertex   -2.050000e+01 5.950000e+01 2.800000e+01
      vertex   -2.050000e+01 6.250000e+01 2.500000e+01
      vertex   -2.050000e+01 5.950000e+01 2.500000e+01
    endloop
  endfacet
  facet normal 0.000000e+00 0.000000e+00 -1.483404e-01
    outer loop
      vertex   -2.550000e+01 3.950000e+01 2.800000e+01
      vertex   -2.550000e+01 6.250000e+01 2.800000e+01
      vertex   -2.250000e+01 5.950000e+01 2.800000e+01
    endloop
  endfacet
  facet normal 0.000000e+00 0.000000e+00 -9.805807e-01
    outer loop
      vertex   -2.250000e+01 5.950000e+01 2.800000e+01
      vertex   -2.550000e+01 6.250000e+01 2.800000e+01
      vertex   -2.050000e+01 6.250000e+01 2.800000e+01
    endloop
  endfacet
  facet normal 0.000000e+00 0.000000e+00 -8.320503e-01
    outer loop
      vertex   -2.250000e+01 5.950000e+01 2.800000e+01
      vertex   -2.050000e+01 6.250000e+01 2.800000e+01
      vertex   -2.050000e+01 5.950000e+01 2.800000e+01
    endloop
  endfacet
  facet normal 0.000000e+00 -0.000000e+00 -1.483404e-01
    outer loop
      vertex   -2.250000e+01 5.950000e+01 2.800000e+01
      vertex   -2.250000e+01 3.950000e+01 2.800000e+01
      vertex   -2.550000e+01 3.950000e+01 2.800000e+01
    endloop
  endfacet
  facet normal 0.000000e+00 1.000000e+00 0.000000e+00
    outer loop
      vertex   -2.050000e+01 6.250000e+01 2.500000e+01
      vertex   -2.050000e+01 6.250000e+01 2.800000e+01
      vertex   -1.550000e+01 6.250000e+01 2.500000e+01
    endloop
  endfacet
  facet normal 0.000000e+00 8.574929e-01 -0.000000e+00
    outer loop
      vertex   -1.550000e+01 6.250000e+01 2.500000e+01
      vertex   -2.050000e+01 6.250000e+01 2.800000e+01
      vertex   -1.550000e+01 6.250000e+01 4.800000e+01
    endloop
  endfacet
  facet normal 0.000000e+00 9.701425e-01 0.000000e+00
    outer loop
      vertex   -1.550000e+01 6.250000e+01 4.800000e+01
      vertex   -2.050000e+01 6.250000e+01 2.800000e+01
      vertex   -2.550000e+01 6.250000e+01 4.800000e+01
    endloop
  endfacet
  facet normal 0.000000e+00 2.425356e-01 0.000000e+00
    outer loop
      vertex   -2.550000e+01 6.250000e+01 4.800000e+01
      vertex   -2.050000e+01 6.250000e+01 2.800000e+01
      vertex   -2.550000e+01 6.250000e+01 2.800000e+01
    endloop
  endfacet
  facet normal 0.000000e+00 0.000000e+00 -1.000000e+00
    outer loop
      vertex   -2.050000e+01 6.250000e+01 2.500000e+01
      vertex   -1.550000e+01 6.250000e+01 2.500000e+01
      vertex   -2.050000e+01 5.950000e+01 2.500000e+01
    endloop
  endfacet
  facet normal 0.000000e+00 0.000000e+00 -5.144957e-01
    outer loop
      vertex   -2.050000e+01 5.950000e+01 2.500000e+01
      vertex   -1.550000e+01 6.250000e+01 2.500000e+01
      vertex   -1.550000e+01 5.950000e+01 2.500000e+01
    endloop
  endfacet
  facet normal -8.376105e-01 0.000000e+00 0.000000e+00
    outer loop
      vertex   -1.550000e+01 3.200000e+01 2.070000e+01
      vertex   -1.550000e+01 3.050000e+01 2.300000e+01
      vertex   -1.550000e+01 3.500000e+01 2.070000e+01
    endloop
  endfacet
  facet normal -5.363445e-01 0.000000e+00 0.000000e+00
    outer loop
      vertex   -1.550000e+01 3.500000e+01 2.070000e+01
      vertex   -1.550000e+01 3.050000e+01 2.300000e+01
      vertex   -1.550000e+01 5.950000e+01 2.300000e+01
    endloop
  endfacet
  facet normal -6.579005e-01 0.000000e+00 0.000000e+00
    outer loop
      vertex   -1.550000e+01 3.500000e+01 2.070000e+01
      vertex   -1.550000e+01 5.950000e+01 2.300000e+01
      vertex   -1.550000e+01 5.193011e+01 8.500000e+00
    endloop
  endfacet
  facet normal -8.864678e-01 0.000000e+00 0.000000e+00
    outer loop
      vertex   -1.550000e+01 5.193011e+01 8.500000e+00
      vertex   -1.550000e+01 5.950000e+01 2.300000e+01
      vertex   -1.550000e+01 7.193011e+01 8.500000e+00
    endloop
  endfacet
  facet normal -1.883394e-01 0.000000e+00 0.000000e+00
    outer loop
      vertex   -1.550000e+01 7.193011e+01 8.500000e+00
      vertex   -1.550000e+01 5.950000e+01 2.300000e+01
      vertex   -1.550000e+01 6.250000e+01 2.500000e+01
    endloop
  endfacet
  facet normal -8.375860e-01 0.000000e+00 0.000000e+00
    outer loop
      vertex   -1.550000e+01 7.193011e+01 8.500000e+00
      vertex   -1.550000e+01 6.250000e+01 2.500000e+01
      vertex   -1.550000e+01 8.500000e+01 3.400000e+01
    endloop
  endfacet
  facet normal -8.058477e-01 -0.000000e+00 0.000000e+00
    outer loop
      vertex   -1.550000e+01 8.500000e+01 3.400000e+01
      vertex   -1.550000e+01 6.250000e+01 2.500000e+01
      vertex   -1.550000e+01 6.250000e+01 4.800000e+01
    endloop
  endfacet
  facet normal -9.925758e-01 0.000000e+00 0.000000e+00
    outer loop
      vertex   -1.550000e+01 8.500000e+01 3.400000e+01
      vertex   -1.550000e+01 6.250000e+01 4.800000e+01
      vertex   -1.550000e+01 9.150000e+01 4.800000e+01
    endloop
  endfacet
  facet normal -8.376105e-01 -0.000000e+00 -0.000000e+00
    outer loop
      vertex   -1.550000e+01 3.050000e+01 2.300000e+01
      vertex   -1.550000e+01 3.200000e+01 2.070000e+01
      vertex   -1.550000e+01 2.850000e+01 2.300000e+01
    endloop
  endfacet
  facet normal -6.921962e-01 0.000000e+00 0.000000e+00
    outer loop
      vertex   -1.550000e+01 2.850000e+01 2.300000e+01
      vertex   -1.550000e+01 3.200000e+01 2.070000e+01
      vertex   -1.550000e+01 3.200000e+01 7.700000e+00
    endloop
  endfacet
  facet normal -2.229978e-01 0.000000e+00 0.000000e+00
    outer loop
      vertex   -1.550000e+01 2.850000e+01 2.300000e+01
      vertex   -1.550000e+01 3.200000e+01 7.700000e+00
      vertex   -1.550000e+01 2.850000e+01 0.000000e+00
    endloop
  endfacet
  facet normal -2.710310e-01 0.000000e+00 0.000000e+00
    outer loop
      vertex   -1.550000e+01 2.850000e+01 0.000000e+00
      vertex   -1.550000e+01 3.200000e+01 7.700000e+00
      vertex   -1.550000e+01 3.500000e+01 7.700000e+00
    endloop
  endfacet
  facet normal -6.604523e-01 0.000000e+00 0.000000e+00
    outer loop
      vertex   -1.550000e+01 2.850000e+01 0.000000e+00
      vertex   -1.550000e+01 3.500000e+01 7.700000e+00
      vertex   -1.550000e+01 5.193011e+01 3.500000e+00
    endloop
  endfacet
  facet normal -9.705797e-01 0.000000e+00 0.000000e+00
    outer loop
      vertex   -1.550000e+01 5.193011e+01 3.500000e+00
      vertex   -1.550000e+01 3.500000e+01 7.700000e+00
      vertex   -1.550000e+01 5.193011e+01 8.500000e+00
    endloop
  endfacet
  facet normal -6.222724e-01 -0.000000e+00 0.000000e+00
    outer loop
      vertex   -1.550000e+01 5.193011e+01 8.500000e+00
      vertex   -1.550000e+01 3.500000e+01 7.700000e+00
      vertex   -1.550000e+01 3.500000e+01 2.070000e+01
    endloop
  endfacet
  facet normal -1.477411e-01 0.000000e+00 0.000000e+00
    outer loop
      vertex   -1.550000e+01 2.850000e+01 0.000000e+00
      vertex   -1.550000e+01 5.193011e+01 3.500000e+00
      vertex   -1.550000e+01 6.000000e+01 0.000000e+00
    endloop
  endfacet
  facet normal -6.400735e-01 0.000000e+00 0.000000e+00
    outer loop
      vertex   -1.550000e+01 6.000000e+01 0.000000e+00
      vertex   -1.550000e+01 5.193011e+01 3.500000e+00
      vertex   -1.550000e+01 7.193011e+01 3.500000e+00
    endloop
  endfacet
  facet normal -2.815106e-01 0.000000e+00 0.000000e+00
    outer loop
      vertex   -1.550000e+01 6.000000e+01 0.000000e+00
      vertex   -1.550000e+01 7.193011e+01 3.500000e+00
      vertex   -1.550000e+01 9.150000e+01 0.000000e+00
    endloop
  endfacet
  facet normal -8.187043e-01 0.000000e+00 0.000000e+00
    outer loop
      vertex   -1.550000e+01 9.150000e+01 0.000000e+00
      vertex   -1.550000e+01 7.193011e+01 3.500000e+00
      vertex   -1.550000e+01 8.500000e+01 1.400000e+01
    endloop
  endfacet
  facet normal -1.885560e-01 0.000000e+00 0.000000e+00
    outer loop
      vertex   -1.550000e+01 9.150000e+01 0.000000e+00
      vertex   -1.550000e+01 8.500000e+01 1.400000e+01
      vertex   -1.550000e+01 8.800000e+01 1.400000e+01
    endloop
  endfacet
  facet normal -7.795842e-01 0.000000e+00 0.000000e+00
    outer loop
      vertex   -1.550000e+01 7.193011e+01 3.500000e+00
      vertex   -1.550000e+01 7.193011e+01 8.500000e+00
      vertex   -1.550000e+01 8.500000e+01 1.400000e+01
    endloop
  endfacet
  facet normal -9.217138e-01 -0.000000e+00 0.000000e+00
    outer loop
      vertex   -1.550000e+01 8.500000e+01 1.400000e+01
      vertex   -1.550000e+01 7.193011e+01 8.500000e+00
      vertex   -1.550000e+01 8.500000e+01 3.400000e+01
    endloop
  endfacet
  facet normal -2.425356e-01 0.000000e+00 0.000000e+00
    outer loop
      vertex   -1.550000e+01 8.800000e+01 1.400000e+01
      vertex   -1.550000e+01 8.800000e+01 3.400000e+01
      vertex   -1.550000e+01 9.150000e+01 0.000000e+00
    endloop
  endfacet
  facet normal -1.024000e-01 0.000000e+00 0.000000e+00
    outer loop
      vertex   -1.550000e+01 9.150000e+01 0.000000e+00
      vertex   -1.550000e+01 8.800000e+01 3.400000e+01
      vertex   -1.550000e+01 9.150000e+01 4.800000e+01
    endloop
  endfacet
  facet normal -1.885560e-01 0.000000e+00 0.000000e+00
    outer loop
      vertex   -1.550000e+01 9.150000e+01 4.800000e+01
      vertex   -1.550000e+01 8.800000e+01 3.400000e+01
      vertex   -1.550000e+01 8.500000e+01 3.400000e+01
    endloop
  endfacet
  facet normal -1.000000e+00 0.000000e+00 0.000000e+00
    outer loop
      vertex   -1.550000e+01 5.950000e+01 2.500000e+01
      vertex   -1.550000e+01 6.250000e+01 2.500000e+01
      vertex   -1.550000e+01 5.950000e+01 2.300000e+01
    endloop
  endfacet
  facet normal 0.000000e+00 -0.000000e+00 1.000000e+00
    outer loop
      vertex   -1.250000e+01 3.950000e+01 2.300000e+01
      vertex   -1.250000e+01 5.950000e+01 2.300000e+01
      vertex   -1.450000e+01 3.950000e+01 2.300000e+01
    endloop
  endfacet
  facet normal 0.000000e+00 -0.000000e+00 1.490694e-01
    outer loop
      vertex   -1.450000e+01 3.950000e+01 2.300000e+01
      vertex   -1.250000e+01 5.950000e+01 2.300000e+01
      vertex   -1.550000e+01 5.950000e+01 2.300000e+01
    endloop
  endfacet
  facet normal 0.000000e+00 0.000000e+00 1.599259e-01
    outer loop
      vertex   -1.450000e+01 3.950000e+01 2.300000e+01
      vertex   -1.550000e+01 5.950000e+01 2.300000e+01
      vertex   -1.550000e+01 3.050000e+01 2.300000e+01
    endloop
  endfacet
  facet normal 0.000000e+00 0.000000e+00 9.938837e-01
    outer loop
      vertex   -1.550000e+01 3.050000e+01 2.300000e+01
      vertex   -1.450000e+01 3.050000e+01 2.300000e+01
      vertex   -1.450000e+01 3.950000e+01 2.300000e+01
    endloop
  endfacet
  facet normal 0.000000e+00 0.000000e+00 7.071068e-01
    outer loop
      vertex   -1.250000e+01 5.950000e+01 4.800000e+01
      vertex   -1.550000e+01 6.250000e+01 4.800000e+01
      vertex   -2.250000e+01 5.950000e+01 4.800000e+01
    endloop
  endfacet
  facet normal 0.000000e+00 -0.000000e+00 9.284767e-01
    outer loop
      vertex   -2.250000e+01 5.950000e+01 4.800000e+01
      vertex   -1.550000e+01 6.250000e+01 4.800000e+01
      vertex   -2.550000e+01 6.250000e+01 4.800000e+01
    endloop
  endfacet
  facet normal 0.000000e+00 0.000000e+00 7.719302e-01
    outer loop
      vertex   -2.250000e+01 5.950000e+01 4.800000e+01
      vertex   -2.550000e+01 6.250000e+01 4.800000e+01
      vertex   -2.550000e+01 2.850000e+01 4.800000e+01
    endloop
  endfacet
  facet normal 0.000000e+00 -0.000000e+00 7.071068e-01
    outer loop
      vertex   -1.250000e+01 5.950000e+01 4.800000e+01
      vertex   -1.250000e+01 9.150000e+01 4.800000e+01
      vertex   -1.550000e+01 6.250000e+01 4.800000e+01
    endloop
  endfacet
  facet normal 0.000000e+00 0.000000e+00 1.028991e-01
    outer loop
      vertex   -1.550000e+01 6.250000e+01 4.800000e+01
      vertex   -1.250000e+01 9.150000e+01 4.800000e+01
      vertex   -1.550000e+01 9.150000e+01 4.800000e+01
    endloop
  endfacet
  facet normal 0.000000e+00 0.000000e+00 9.953500e-01
    outer loop
      vertex   -2.550000e+01 2.850000e+01 4.800000e+01
      vertex   -2.250000e+01 2.850000e+01 4.800000e+01
      vertex   -2.250000e+01 5.950000e+01 4.800000e+01
    endloop
  endfacet
  facet normal 0.000000e+00 -1.000000e+00 0.000000e+00
    outer loop
      vertex   -1.550000e+01 2.850000e+01 0.000000e+00
      vertex   -1.250000e+01 2.850000e+01 0.000000e+00
      vertex   -1.550000e+01 2.850000e+01 2.300000e+01
    endloop
  endfacet
  facet normal 0.000000e+00 -6.210817e-01 0.000000e+00
    outer loop
      vertex   -1.550000e+01 2.850000e+01 2.300000e+01
      vertex   -1.250000e+01 2.850000e+01 0.000000e+00
      vertex   -1.250000e+01 2.850000e+01 2.800000e+01
    endloop
  endfacet
  facet normal 0.000000e+00 -9.968153e-01 0.000000e+00
    outer loop
      vertex   -1.550000e+01 2.850000e+01 2.300000e+01
      vertex   -1.250000e+01 2.850000e+01 2.800000e+01
      vertex   -2.250000e+01 2.850000e+01 2.800000e+01
    endloop
  endfacet
  facet normal -0.000000e+00 -1.000000e+00 -0.000000e+00
    outer loop
      vertex   -2.250000e+01 2.850000e+01 4.800000e+01
      vertex   -2.550000e+01 2.850000e+01 4.800000e+01
      vertex   -2.250000e+01 2.850000e+01 2.800000e+01
    endloop
  endfacet
  facet normal -0.000000e+00 -6.360044e-01 0.000000e+00
    outer loop
      vertex   -2.250000e+01 2.850000e+01 2.800000e+01
      vertex   -2.550000e+01 2.850000e+01 4.800000e+01
      vertex   -2.550000e+01 2.850000e+01 2.300000e+01
    endloop
  endfacet
  facet normal 0.000000e+00 -9.968153e-01 -0.000000e+00
    outer loop
      vertex   -2.250000e+01 2.850000e+01 2.800000e+01
      vertex   -2.550000e+01 2.850000e+01 2.300000e+01
      vertex   -1.550000e+01 2.850000e+01 2.300000e+01
    endloop
  endfacet
  facet normal 0.000000e+00 0.000000e+00 -1.000000e+00
    outer loop
      vertex   -1.250000e+01 2.850000e+01 0.000000e+00
      vertex   -1.550000e+01 2.850000e+01 0.000000e+00
      vertex   -1.250000e+01 6.000000e+01 0.000000e+00
    endloop
  endfacet
  facet normal -0.000000e+00 0.000000e+00 -9.954955e-01
    outer loop
      vertex   -1.250000e+01 6.000000e+01 0.000000e+00
      vertex   -1.550000e+01 2.850000e+01 0.000000e+00
      vertex   -1.550000e+01 6.000000e+01 0.000000e+00
    endloop
  endfacet
  facet normal 0.000000e+00 0.000000e+00 -1.000000e+00
    outer loop
      vertex   -1.250000e+01 6.000000e+01 0.000000e+00
      vertex   -1.550000e+01 6.000000e+01 0.000000e+00
      vertex   -1.250000e+01 9.150000e+01 0.000000e+00
    endloop
  endfacet
  facet normal -0.000000e+00 0.000000e+00 -9.954955e-01
    outer loop
      vertex   -1.250000e+01 9.150000e+01 0.000000e+00
      vertex   -1.550000e+01 6.000000e+01 0.000000e+00
      vertex   -1.550000e+01 9.150000e+01 0.000000e+00
    endloop
  endfacet
  facet normal 7.465132e-01 -0.000000e+00 0.000000e+00
    outer loop
      vertex   -1.250000e+01 3.950000e+01 2.300000e+01
      vertex   -1.250000e+01 6.000000e+01 0.000000e+00
      vertex   -1.250000e+01 5.950000e+01 2.300000e+01
    endloop
  endfacet
  facet normal 7.991388e-01 0.000000e+00 0.000000e+00
    outer loop
      vertex   -1.250000e+01 5.950000e+01 2.300000e+01
      vertex   -1.250000e+01 6.000000e+01 0.000000e+00
      vertex   -1.250000e+01 9.150000e+01 0.000000e+00
    endloop
  endfacet
  facet normal 9.598318e-01 -0.000000e+00 0.000000e+00
    outer loop
      vertex   -1.250000e+01 5.950000e+01 2.300000e+01
      vertex   -1.250000e+01 9.150000e+01 0.000000e+00
      vertex   -1.250000e+01 9.150000e+01 4.800000e+01
    endloop
  endfacet
  facet normal 1.000000e+00 0.000000e+00 0.000000e+00
    outer loop
      vertex   -1.250000e+01 3.950000e+01 2.800000e+01
      vertex   -1.250000e+01 2.850000e+01 2.800000e+01
      vertex   -1.250000e+01 3.950000e+01 2.300000e+01
    endloop
  endfacet
  facet normal 9.998103e-01 0.000000e+00 0.000000e+00
    outer loop
      vertex   -1.250000e+01 3.950000e+01 2.300000e+01
      vertex   -1.250000e+01 2.850000e+01 2.800000e+01
      vertex   -1.250000e+01 2.850000e+01 0.000000e+00
    endloop
  endfacet
  facet normal 9.223408e-01 0.000000e+00 0.000000e+00
    outer loop
      vertex   -1.250000e+01 3.950000e+01 2.300000e+01
      vertex   -1.250000e+01 2.850000e+01 0.000000e+00
      vertex   -1.250000e+01 6.000000e+01 0.000000e+00
    endloop
  endfacet
  facet normal 6.156440e-01 0.000000e+00 0.000000e+00
    outer loop
      vertex   -1.250000e+01 9.150000e+01 4.800000e+01
      vertex   -1.250000e+01 5.950000e+01 4.800000e+01
      vertex   -1.250000e+01 5.950000e+01 2.300000e+01
    endloop
  endfacet
  facet normal 0.000000e+00 1.000000e+00 0.000000e+00
    outer loop
      vertex   -1.550000e+01 9.150000e+01 0.000000e+00
      vertex   -1.550000e+01 9.150000e+01 4.800000e+01
      vertex   -1.250000e+01 9.150000e+01 0.000000e+00
    endloop
  endfacet
  facet normal 0.000000e+00 6.237829e-02 -0.000000e+00
    outer loop
      vertex   -1.250000e+01 9.150000e+01 0.000000e+00
      vertex   -1.550000e+01 9.150000e+01 4.800000e+01
      vertex   -1.250000e+01 9.150000e+01 4.800000e+01
    endloop
  endfacet
endsolid
